<svg width="690" height="93" viewBox="0 0 690 93" fill="none" xmlns="http://www.w3.org/2000/svg">
<path d="M90 46.5C90 70.5244 70.5244 90 46.5 90C22.4756 90 3 70.5244 3 46.5C3 22.4756 22.4756 3 46.5 3C70.5244 3 90 22.4756 90 46.5Z" stroke="#0061FD" stroke-width="6"/>
<path d="M80.5 47C80.5 65.5015 65.5015 80.5 47 80.5C28.4985 80.5 13.5 65.5015 13.5 47C13.5 28.4985 28.4985 13.5 47 13.5C65.5015 13.5 80.5 28.4985 80.5 47Z" stroke="#0061FD" stroke-width="3"/>
<path d="M77 46.9601C72.7825 46.9601 68.8037 47.8342 65.2228 49.4236C63.4722 50.1389 61.8011 51.0925 60.2891 52.1257L57.1061 48.9468C58.061 48.2316 59.0159 47.6753 60.0504 47.0395C54.6393 43.9401 50.1034 39.4898 47 34.0063C46.443 35.0394 45.8064 35.9931 45.0902 37.0262C44.4536 37.9799 43.7374 38.854 42.9417 39.7282L57.504 54.2714C56.3103 55.3045 55.2759 56.3376 54.321 57.5297C53.6048 58.4038 52.8886 59.278 52.252 60.2317C51.2175 61.8211 50.2626 63.5694 49.4668 65.3178C47.9549 68.894 47.0796 72.8675 47.0796 77H47C47 72.8675 46.1247 68.894 44.6127 65.3178C41.5888 58.1654 35.939 52.523 28.7772 49.4236C25.1963 47.8342 21.1379 47.0395 17 47.0395C21.2175 47.0395 25.1963 46.1653 28.7772 44.6554C30.5278 43.8607 32.2785 42.9865 33.7905 41.8739L36.9735 45.0527C36.0186 45.768 34.9841 46.4037 33.9496 47.0395C39.3607 50.1389 43.8965 54.5892 47 60.0727C47.6366 59.0396 48.2732 58.0065 48.9894 56.9734C49.626 56.0197 50.3422 55.1456 51.1379 54.2714L36.5756 39.7282C37.6897 38.6951 38.8037 37.662 39.7586 36.4699C40.4748 35.5957 41.191 34.7215 41.8276 33.7679C42.8621 32.1785 43.817 30.5096 44.5332 28.7612C46.0451 25.185 46.9204 21.2115 46.9204 17.079H47C47 21.2115 47.8753 25.185 49.3873 28.7612C52.4111 35.9136 58.1406 41.556 65.2228 44.6554C68.8037 46.0859 72.7825 46.9601 77 46.9601Z" fill="#0061FD"/>
<path fill-rule="evenodd" clip-rule="evenodd" d="M686.263 31.9011V70.5411H689.644V23.6211L663.7 50.4621L637.756 23.6211V70.5411H641.068V31.9011L663.7 55.2921L686.263 31.9011Z" fill="#071D46"/>
<path d="M597.34 71.3C594.074 71.3 591.015 70.702 588.163 69.506C585.311 68.264 582.827 66.585 580.711 64.469C578.595 62.307 576.916 59.8 575.674 56.948C574.432 54.096 573.811 51.037 573.811 47.771C573.811 44.183 574.294 40.963 575.26 38.111C576.272 35.213 578.089 32.453 580.711 29.831C582.919 27.623 585.449 25.944 588.301 24.794C591.153 23.598 594.166 23 597.34 23H608.104C611.324 23 614.36 23.621 617.212 24.863C620.064 26.059 622.548 27.738 624.664 29.9C626.78 32.016 628.459 34.5 629.701 37.352C630.943 40.204 631.564 43.24 631.564 46.46C631.564 50.048 631.058 53.291 630.046 56.189C629.08 59.041 627.286 61.778 624.664 64.4C622.456 66.608 619.926 68.31 617.074 69.506C614.268 70.702 611.278 71.3 608.104 71.3H597.34ZM608.104 67.919C610.864 67.919 613.463 67.39 615.901 66.332C618.339 65.274 620.455 63.848 622.249 62.054C624.089 60.214 625.538 58.075 626.596 55.637C627.654 53.153 628.183 50.531 628.183 47.771V46.46C628.183 43.7 627.654 41.101 626.596 38.663C625.538 36.179 624.089 34.04 622.249 32.246C620.455 30.406 618.339 28.957 615.901 27.899C613.463 26.841 610.864 26.312 608.104 26.312H597.34C594.58 26.312 591.958 26.841 589.474 27.899C587.036 28.957 584.897 30.406 583.057 32.246C581.263 34.04 579.837 36.179 578.779 38.663C577.721 41.101 577.192 43.7 577.192 46.46V47.771C577.192 50.531 577.721 53.153 578.779 55.637C579.837 58.075 581.263 60.214 583.057 62.054C584.897 63.848 587.036 65.274 589.474 66.332C591.958 67.39 594.58 67.919 597.34 67.919H608.104Z" fill="#071D46"/>
<path d="M513.97 70.6794C513.188 70.6794 512.567 70.4724 512.107 70.0584C511.555 69.7364 511.279 69.2764 511.279 68.6784C511.279 68.0804 511.555 67.5744 512.107 67.1604C512.613 66.7924 513.234 66.6084 513.97 66.6084C514.706 66.6084 515.373 66.7924 515.971 67.1604C516.477 67.5744 516.73 68.0804 516.73 68.6784C516.73 69.2304 516.477 69.6904 515.971 70.0584C515.419 70.4724 514.752 70.6794 513.97 70.6794Z" fill="#071D46"/>
<path d="M465.594 70.5408V24.4488L503.061 62.0538V23.5518H506.442V70.1958L468.975 32.5908V70.5408H465.594Z" fill="#071D46"/>
<path d="M456.092 70.5408V23.5518H459.404V70.5408H456.092Z" fill="#071D46"/>
<path d="M446.044 70.5998L423.895 30.7178L401.47 67.2188H413.683L422.032 52.4528H425.896L415.615 70.5998H395.467L424.102 24.0938L449.908 70.5998H446.044Z" fill="#071D46"/>
<path d="M387.266 70.5408V47.9778H345.797V70.5408H342.416V23.5518H345.797V43.7688H387.266V23.5518H390.647V70.5408H387.266Z" fill="#071D46"/>
<path d="M310.218 70.4718C306.952 70.4718 303.893 69.8738 301.041 68.6778C298.235 67.4358 295.751 65.7568 293.589 63.6408C291.473 61.4788 289.794 58.9948 288.552 56.1888C287.356 53.3368 286.758 50.2778 286.758 47.0118C286.758 43.7918 287.356 40.7558 288.552 37.9038C289.794 35.0518 291.473 32.5678 293.589 30.4518C295.751 28.2898 298.235 26.6108 301.041 25.4148C303.893 24.1728 306.952 23.5518 310.218 23.5518H334.644V26.9328H310.218C307.458 26.9328 304.836 27.4618 302.352 28.5198C299.914 29.5778 297.775 31.0268 295.935 32.8668C294.141 34.6608 292.715 36.7768 291.657 39.2148C290.599 41.6528 290.07 44.2518 290.07 47.0118C290.07 49.7718 290.599 52.3938 291.657 54.8778C292.715 57.3158 294.141 59.4548 295.935 61.2948C297.775 63.0888 299.914 64.5148 302.352 65.5728C304.836 66.6308 307.458 67.1598 310.218 67.1598H334.644V70.4718H310.218Z" fill="#071D46"/>
<path d="M545.046 70.4718C541.78 70.4718 538.721 69.8738 535.869 68.6778C533.063 67.4358 530.579 65.7568 528.417 63.6408C526.301 61.4788 524.622 58.9948 523.38 56.1888C522.184 53.3368 521.586 50.2778 521.586 47.0118C521.586 43.7918 522.184 40.7558 523.38 37.9038C524.622 35.0518 526.301 32.5678 528.417 30.4518C530.579 28.2898 533.063 26.6108 535.869 25.4148C538.721 24.1728 541.78 23.5518 545.046 23.5518H569.472V26.9328H545.046C542.286 26.9328 539.664 27.4618 537.18 28.5198C534.742 29.5778 532.603 31.0268 530.763 32.8668C528.969 34.6608 527.543 36.7768 526.485 39.2148C525.427 41.6528 524.898 44.2518 524.898 47.0118C524.898 49.7718 525.427 52.3938 526.485 54.8778C527.543 57.3158 528.969 59.4548 530.763 61.2948C532.603 63.0888 534.742 64.5148 537.18 65.5728C539.664 66.6308 542.286 67.1598 545.046 67.1598H569.472V70.4718H545.046Z" fill="#071D46"/>
<path d="M232.18 70.5408L243.496 58.7418H248.188L240.046 67.1598H267.991C269.371 67.1598 270.613 66.9298 271.717 66.4698C272.821 65.9638 273.764 65.2738 274.546 64.3998C275.374 63.5258 275.995 62.5138 276.409 61.3638C276.869 60.2138 277.099 58.9718 277.099 57.6378C277.099 56.3958 276.846 55.2228 276.34 54.1188C275.88 53.0148 275.236 52.0488 274.408 51.2208C273.58 50.3928 272.614 49.7488 271.51 49.2888C270.406 48.7828 269.233 48.5298 267.991 48.5298H246.946C245.244 48.5298 243.634 48.2078 242.116 47.5638C240.598 46.9198 239.264 46.0228 238.114 44.8728C237.01 43.7228 236.136 42.4118 235.492 40.9398C234.848 39.4218 234.526 37.7888 234.526 36.0408C234.526 34.3388 234.848 32.7288 235.492 31.2108C236.136 29.6928 237.01 28.3588 238.114 27.2088C239.264 26.0588 240.598 25.1618 242.116 24.5178C243.634 23.8738 245.244 23.5518 246.946 23.5518H281.929L272.683 33.2118H267.991L274.063 26.9328H246.946C245.704 26.9328 244.531 27.1858 243.427 27.6918C242.323 28.1518 241.357 28.7958 240.529 29.6238C239.701 30.4518 239.034 31.4178 238.528 32.5218C238.068 33.6258 237.838 34.7988 237.838 36.0408C237.838 37.2828 238.068 38.4558 238.528 39.5598C239.034 40.6638 239.701 41.6298 240.529 42.4578C241.357 43.2858 242.323 43.9528 243.427 44.4588C244.531 44.9188 245.704 45.1488 246.946 45.1488H267.991C269.831 45.1488 271.51 45.4938 273.028 46.1838C274.546 46.8278 275.857 47.7478 276.961 48.9438C278.065 50.0938 278.916 51.4508 279.514 53.0148C280.112 54.5788 280.411 56.2578 280.411 58.0518C280.411 59.7998 280.089 61.4328 279.445 62.9508C278.801 64.4228 277.904 65.7338 276.754 66.8838C275.65 68.0338 274.339 68.9308 272.821 69.5748C271.303 70.2188 269.693 70.5408 267.991 70.5408H232.18Z" fill="#0061FD"/>
<path d="M177.598 70.5408L188.914 58.7418H193.606L185.464 67.1598H213.409C214.789 67.1598 216.031 66.9298 217.135 66.4698C218.239 65.9638 219.182 65.2738 219.964 64.3998C220.792 63.5258 221.413 62.5138 221.827 61.3638C222.287 60.2138 222.517 58.9718 222.517 57.6378C222.517 56.3958 222.264 55.2228 221.758 54.1188C221.298 53.0148 220.654 52.0488 219.826 51.2208C218.998 50.3928 218.032 49.7488 216.928 49.2888C215.824 48.7828 214.651 48.5298 213.409 48.5298H192.364C190.662 48.5298 189.052 48.2078 187.534 47.5638C186.016 46.9198 184.682 46.0228 183.532 44.8728C182.428 43.7228 181.554 42.4118 180.91 40.9398C180.266 39.4218 179.944 37.7888 179.944 36.0408C179.944 34.3388 180.266 32.7288 180.91 31.2108C181.554 29.6928 182.428 28.3588 183.532 27.2088C184.682 26.0588 186.016 25.1618 187.534 24.5178C189.052 23.8738 190.662 23.5518 192.364 23.5518H227.347L218.101 33.2118H213.409L219.481 26.9328H192.364C191.122 26.9328 189.949 27.1858 188.845 27.6918C187.741 28.1518 186.775 28.7958 185.947 29.6238C185.119 30.4518 184.452 31.4178 183.946 32.5218C183.486 33.6258 183.256 34.7988 183.256 36.0408C183.256 37.2828 183.486 38.4558 183.946 39.5598C184.452 40.6638 185.119 41.6298 185.947 42.4578C186.775 43.2858 187.741 43.9528 188.845 44.4588C189.949 44.9188 191.122 45.1488 192.364 45.1488H213.409C215.249 45.1488 216.928 45.4938 218.446 46.1838C219.964 46.8278 221.275 47.7478 222.379 48.9438C223.483 50.0938 224.334 51.4508 224.932 53.0148C225.53 54.5788 225.829 56.2578 225.829 58.0518C225.829 59.7998 225.507 61.4328 224.863 62.9508C224.219 64.4228 223.322 65.7338 222.172 66.8838C221.068 68.0338 219.757 68.9308 218.239 69.5748C216.721 70.2188 215.111 70.5408 213.409 70.5408H177.598Z" fill="#0061FD"/>
<path d="M138.529 71.3C135.263 71.3 132.204 70.702 129.352 69.506C126.5 68.264 124.016 66.585 121.9 64.469C119.784 62.307 118.105 59.8 116.863 56.948C115.621 54.096 115 51.037 115 47.771C115 44.183 115.483 40.963 116.449 38.111C117.461 35.213 119.278 32.453 121.9 29.831C124.108 27.623 126.638 25.944 129.49 24.794C132.342 23.598 135.355 23 138.529 23H149.293C152.513 23 155.549 23.621 158.401 24.863C161.253 26.059 163.737 27.738 165.853 29.9C167.969 32.016 169.648 34.5 170.89 37.352C172.132 40.204 172.753 43.24 172.753 46.46C172.753 50.048 172.247 53.291 171.235 56.189C170.269 59.041 168.475 61.778 165.853 64.4C163.645 66.608 161.115 68.31 158.263 69.506C155.457 70.702 152.467 71.3 149.293 71.3H138.529ZM149.293 67.919C152.053 67.919 154.652 67.39 157.09 66.332C159.528 65.274 161.644 63.848 163.438 62.054C165.278 60.214 166.727 58.075 167.785 55.637C168.843 53.153 169.372 50.531 169.372 47.771V46.46C169.372 43.7 168.843 41.101 167.785 38.663C166.727 36.179 165.278 34.04 163.438 32.246C161.644 30.406 159.528 28.957 157.09 27.899C154.652 26.841 152.053 26.312 149.293 26.312H138.529C135.769 26.312 133.147 26.841 130.663 27.899C128.225 28.957 126.086 30.406 124.246 32.246C122.452 34.04 121.026 36.179 119.968 38.663C118.91 41.101 118.381 43.7 118.381 46.46V47.771C118.381 50.531 118.91 53.153 119.968 55.637C121.026 58.075 122.452 60.214 124.246 62.054C126.086 63.848 128.225 65.274 130.663 66.332C133.147 67.39 135.769 67.919 138.529 67.919H149.293Z" fill="#071D46"/>
</svg>
